<svg width="24" height="24" viewBox="0 0 24 24" fill="none" xmlns="http://www.w3.org/2000/svg">
<path d="M13.574 12.7499H11.541C11.2294 12.7501 10.9276 12.8588 10.6874 13.0572C10.4471 13.2555 10.2834 13.5313 10.2243 13.8373C10.1652 14.1432 10.2143 14.4601 10.3633 14.7337C10.5124 15.0074 10.7519 15.2206 11.041 15.3369L13.105 16.1629C13.394 16.2792 13.6336 16.4925 13.7826 16.7661C13.9316 17.0397 13.9808 17.3567 13.9217 17.6626C13.8625 17.9685 13.6988 18.2443 13.4586 18.4427C13.2183 18.6411 12.9165 18.7497 12.605 18.7499H10.574M12.074 12.7499V11.9999M12.074 19.4999V18.7499M6.82397 8.24992H17.324M15.63 5.03592L17.068 2.15992C17.1382 2.01916 17.1625 1.85986 17.1372 1.70458C17.1119 1.54929 17.0385 1.40588 16.9273 1.29464C16.816 1.18339 16.6726 1.10995 16.5173 1.08469C16.362 1.05944 16.2027 1.08366 16.062 1.15392L14.162 2.10192C13.9985 2.18352 13.8109 2.20265 13.6343 2.15569C13.4577 2.10874 13.3043 1.99894 13.203 1.84692L12.7 1.08392C12.6315 0.9812 12.5387 0.896978 12.4298 0.838728C12.321 0.780478 12.1994 0.75 12.076 0.75C11.9525 0.75 11.831 0.780478 11.7221 0.838728C11.6133 0.896978 11.5205 0.9812 11.452 1.08392L10.943 1.84692C10.8416 1.99894 10.6883 2.10874 10.5117 2.15569C10.3351 2.20265 10.1475 2.18352 9.98397 2.10192L8.08697 1.15392C7.94617 1.08399 7.78697 1.06001 7.63181 1.08536C7.47666 1.11071 7.33337 1.18412 7.22215 1.29523C7.11092 1.40634 7.03737 1.54956 7.01187 1.70469C6.98636 1.85982 7.01018 2.01904 7.07997 2.15992L8.48997 4.97992" stroke="#6B7280" stroke-width="1.5" stroke-linecap="round" stroke-linejoin="round"/>
<path d="M7.23701 10.5L4.47701 13.7C3.80162 14.5779 3.38553 15.6274 3.27586 16.7297C3.16618 17.8319 3.36731 18.9428 3.85646 19.9366C4.34561 20.9304 5.10324 21.7674 6.04357 22.3528C6.9839 22.9382 8.06935 23.2487 9.17701 23.249H14.967C16.0747 23.2487 17.1601 22.9382 18.1005 22.3528C19.0408 21.7674 19.7984 20.9304 20.2876 19.9366C20.7767 18.9428 20.9778 17.8319 20.8682 16.7297C20.7585 15.6274 20.3424 14.5779 19.667 13.7L16.907 10.5" stroke="#6B7280" stroke-width="1.5" stroke-linecap="round" stroke-linejoin="round"/>
</svg>
