<svg width="20" height="20" viewBox="0 0 20 20" fill="none" xmlns="http://www.w3.org/2000/svg">
<path d="M15 11.2329C16.0458 11.2329 16.9272 11.5977 17.666 12.3354C18.3582 13.0268 18.7213 13.8439 18.7627 14.8052L18.7666 14.9995C18.765 16.0463 18.4002 16.9274 17.6641 17.6655C16.9285 18.4031 16.048 18.7671 15 18.7661C13.953 18.7661 13.0719 18.402 12.335 17.6646C11.5981 16.927 11.2339 16.046 11.2334 14.9995C11.2329 13.9534 11.5971 13.0729 12.335 12.3354C13.0732 11.5978 13.9542 11.2329 15 11.2329ZM14.168 2.06689C14.3011 2.06665 14.3955 2.1071 14.4775 2.18896C14.5596 2.27106 14.6002 2.36533 14.5996 2.49756V3.73291H15.833C16.1842 3.73291 16.4753 3.85381 16.7275 4.10596C16.9798 4.35827 17.1 4.64908 17.0996 4.99951V8.896C17.0995 9.03076 17.0586 9.12527 16.9775 9.20654C16.8962 9.28785 16.8018 9.32886 16.668 9.32861C16.5329 9.3283 16.4372 9.28705 16.3555 9.20557C16.2747 9.12498 16.2335 9.03089 16.2334 8.896V7.93311H3.7666V17.0669H9C9.13511 17.0669 9.23012 17.1076 9.31152 17.189C9.39283 17.2703 9.43384 17.3647 9.43359 17.4985C9.43328 17.6336 9.39145 17.7295 9.30957 17.812C9.22929 17.8929 9.13602 17.9337 9.00195 17.9331H4.16699C3.81549 17.9331 3.52408 17.8127 3.27246 17.561C3.02111 17.3096 2.90093 17.0185 2.90039 16.6665V4.99951C2.90047 4.64837 3.02043 4.35755 3.27246 4.10596C3.49332 3.8855 3.7439 3.76562 4.03809 3.73877L4.16699 3.73291H5.40039V2.49951C5.40046 2.36454 5.44156 2.27056 5.52246 2.18994C5.60417 2.10852 5.69907 2.06727 5.83398 2.06689C5.96744 2.06658 6.06237 2.10691 6.14453 2.18896C6.22662 2.27106 6.26715 2.36533 6.2666 2.49756V3.73291H13.7334V2.49951C13.7335 2.36462 13.7747 2.27053 13.8555 2.18994C13.9372 2.10846 14.0329 2.06721 14.168 2.06689ZM15 12.1001C14.7759 12.1001 14.5791 12.189 14.4258 12.3423C14.2725 12.4956 14.1836 12.6924 14.1836 12.9165V14.812C14.1836 14.9745 14.2142 15.1327 14.2744 15.2837C14.3371 15.4408 14.4309 15.5794 14.5508 15.6987V15.6997L15.8213 16.9702C15.9745 17.1234 16.1715 17.2123 16.3955 17.2124C16.6196 17.2124 16.8174 17.1235 16.9707 16.9702C17.1238 16.817 17.2128 16.6199 17.2129 16.396C17.2129 16.1719 17.124 15.9741 16.9707 15.8208L15.8164 14.6665V12.9165C15.8164 12.6924 15.7275 12.4956 15.5742 12.3423C15.4209 12.189 15.2241 12.1001 15 12.1001ZM3.7666 7.06689H16.2334V4.6001H3.7666V7.06689Z" fill="#6B7280" stroke="#6B7280" stroke-width="0.8"/>
</svg>
