<svg width="32" height="33" viewBox="0 0 32 33" fill="none" xmlns="http://www.w3.org/2000/svg">
<path d="M17.3333 19.8333C17.3333 19.4797 17.4738 19.1406 17.7239 18.8905C17.9739 18.6405 18.313 18.5 18.6667 18.5H22.6667C23.0203 18.5 23.3594 18.6405 23.6095 18.8905C23.8595 19.1406 24 19.4797 24 19.8333C24 20.187 23.8595 20.5261 23.6095 20.7761C23.3594 21.0262 23.0203 21.1667 22.6667 21.1667H18.6667C18.313 21.1667 17.9739 21.0262 17.7239 20.7761C17.4738 20.5261 17.3333 20.187 17.3333 19.8333Z" fill="#F68E34"/>
<path d="M22.428 7.16667H9.57333C8.85066 7.16667 8.26666 7.16667 7.796 7.20534C7.30933 7.24534 6.88266 7.32934 6.488 7.52934C5.86047 7.84897 5.3503 8.35914 5.03066 8.98667C4.83066 9.38134 4.74666 9.808 4.70666 10.2933C4.67066 10.7133 4.66666 11.22 4.66666 11.8333V20.928C4.66666 21.6507 4.66666 22.2347 4.70533 22.7053C4.74533 23.192 4.82933 23.6187 5.02933 24.0133C5.34919 24.6404 5.85934 25.1501 6.48666 25.4693C6.88133 25.6707 7.308 25.7547 7.79333 25.7947C8.26666 25.8333 8.85066 25.8333 9.57333 25.8333H22.4293C23.152 25.8333 23.736 25.8333 24.2067 25.7947C24.6933 25.7547 25.12 25.6707 25.5147 25.4693C26.1415 25.1498 26.6512 24.6402 26.9707 24.0133C27.172 23.6187 27.256 23.192 27.296 22.7067C27.3347 22.2333 27.3347 21.6507 27.3347 20.928V11.8333C27.3347 11.22 27.3307 10.7133 27.296 10.2947C27.256 9.80801 27.172 9.38134 26.9707 8.98667C26.6514 8.35935 26.1417 7.8492 25.5147 7.52934C25.12 7.32934 24.6933 7.24534 24.208 7.20534C23.7333 7.16667 23.1507 7.16667 22.428 7.16667ZM26 11.8333H6C6 11.216 6.004 10.764 6.03466 10.4027C6.06666 10 6.128 9.768 6.21733 9.592C6.40914 9.21535 6.71534 8.90914 7.092 8.71734C7.268 8.62801 7.5 8.56667 7.90266 8.53467C8.31466 8.50001 8.84266 8.50001 9.6 8.50001H22.4C23.1573 8.50001 23.6867 8.50001 24.0973 8.53467C24.5 8.56667 24.732 8.62801 24.908 8.71734C25.2847 8.90914 25.5909 9.21535 25.7827 9.592C25.872 9.768 25.9333 10 25.9653 10.4027C25.996 10.764 26 11.216 26 11.8333ZM6 14.5H26V20.9C26 21.6573 26 22.1867 25.9653 22.5973C25.9333 23 25.872 23.232 25.7827 23.408C25.5909 23.7847 25.2847 24.0909 24.908 24.2827C24.732 24.372 24.5 24.4333 24.0973 24.4653C23.6867 24.5 23.1573 24.5 22.4 24.5H9.6C8.84266 24.5 8.31466 24.5 7.90266 24.4653C7.5 24.4333 7.268 24.372 7.092 24.2827C6.71534 24.0909 6.40914 23.7847 6.21733 23.408C6.128 23.232 6.06666 23 6.03466 22.5973C6 22.1867 6 21.6573 6 20.9V14.5Z" fill="#F68E34"/>
</svg>
