<svg width="20" height="20" viewBox="0 0 20 20" fill="none" xmlns="http://www.w3.org/2000/svg">
<path d="M7.10022 1.23389V2.8999H12.9V1.23389H13.7662V2.8999H17.4996C17.6145 2.8999 17.725 2.94569 17.8063 3.02686C17.8875 3.10812 17.9332 3.21857 17.9332 3.3335V16.6665C17.9332 16.7814 17.8875 16.8919 17.8063 16.9731C17.725 17.0544 17.6146 17.1001 17.4996 17.1001H2.49963C2.3849 17.1 2.27514 17.0542 2.19397 16.9731C2.11271 16.8919 2.06702 16.7814 2.06702 16.6665V3.3335C2.06702 3.21857 2.1127 3.10812 2.19397 3.02686C2.27513 2.94587 2.38498 2.89999 2.49963 2.8999H6.23303V1.23389H7.10022ZM2.93323 16.2339H17.067V7.93311H2.93323V16.2339ZM12.3805 10.3149L10.8951 11.8003L10.6129 12.0835L10.8951 12.3667L12.3795 13.8511L11.7672 14.4634L10.2828 12.98L9.99963 12.6968L9.71741 12.98L8.23206 14.4634L7.61877 13.8511L9.10413 12.3677L9.38733 12.0845L9.10413 11.8013L7.61877 10.3149L8.23206 9.70166L9.71741 11.188L9.99963 11.4712L10.2828 11.188L11.7672 9.70166L12.3805 10.3149ZM2.93323 7.06689H17.067V3.76709H13.7662V4.6001H12.9V3.76709H7.10022V4.6001H6.23303V3.76709H2.93323V7.06689Z" fill="#6B7280" stroke="#6B7280" stroke-width="0.8"/>
</svg>
