<svg width="20" height="21" viewBox="0 0 20 21" fill="none" xmlns="http://www.w3.org/2000/svg">
<path d="M15.1583 15.2917H6.28333C5.45833 15.2917 4.66666 14.9417 4.10833 14.3333C3.54999 13.725 3.26666 12.9083 3.33333 12.0833L4.025 3.78334C4.05 3.525 3.95833 3.27501 3.78333 3.08334C3.60833 2.89167 3.36666 2.79167 3.10833 2.79167H1.66666C1.325 2.79167 1.04166 2.50833 1.04166 2.16667C1.04166 1.825 1.325 1.54167 1.66666 1.54167H3.11667C3.725 1.54167 4.29999 1.8 4.70833 2.24166C4.93333 2.49167 5.09999 2.78334 5.19166 3.10834H15.6C16.4417 3.10834 17.2167 3.44167 17.7833 4.04167C18.3417 4.65 18.625 5.44167 18.5583 6.28334L18.1083 12.5333C18.0167 14.0583 16.6833 15.2917 15.1583 15.2917ZM5.23333 4.35L4.58333 12.1833C4.54166 12.6667 4.7 13.125 5.025 13.4833C5.35 13.8417 5.79999 14.0333 6.28333 14.0333H15.1583C16.025 14.0333 16.8083 13.3 16.875 12.4333L17.325 6.18334C17.3583 5.69167 17.2 5.22501 16.875 4.88334C16.55 4.53334 16.1 4.34166 15.6083 4.34166H5.23333V4.35Z" fill="#1F2937"/>
<path d="M13.5417 19.4583C12.625 19.4583 11.875 18.7083 11.875 17.7917C11.875 16.875 12.625 16.125 13.5417 16.125C14.4583 16.125 15.2083 16.875 15.2083 17.7917C15.2083 18.7083 14.4583 19.4583 13.5417 19.4583ZM13.5417 17.375C13.3083 17.375 13.125 17.5583 13.125 17.7917C13.125 18.025 13.3083 18.2083 13.5417 18.2083C13.775 18.2083 13.9583 18.025 13.9583 17.7917C13.9583 17.5583 13.775 17.375 13.5417 17.375Z" fill="#1F2937"/>
<path d="M6.875 19.4583C5.95834 19.4583 5.20834 18.7083 5.20834 17.7917C5.20834 16.875 5.95834 16.125 6.875 16.125C7.79167 16.125 8.54167 16.875 8.54167 17.7917C8.54167 18.7083 7.79167 19.4583 6.875 19.4583ZM6.875 17.375C6.64167 17.375 6.45834 17.5583 6.45834 17.7917C6.45834 18.025 6.64167 18.2083 6.875 18.2083C7.10834 18.2083 7.29167 18.025 7.29167 17.7917C7.29167 17.5583 7.10834 17.375 6.875 17.375Z" fill="#1F2937"/>
<path d="M17.5 7.79167H7.5C7.15833 7.79167 6.875 7.50833 6.875 7.16667C6.875 6.825 7.15833 6.54167 7.5 6.54167H17.5C17.8417 6.54167 18.125 6.825 18.125 7.16667C18.125 7.50833 17.8417 7.79167 17.5 7.79167Z" fill="#1F2937"/>
</svg>
