<svg width="50" height="51" viewBox="0 0 50 51" fill="none" xmlns="http://www.w3.org/2000/svg">
<path d="M8 1H42C46.1421 1 49.5 4.35786 49.5 8.5V42.5C49.5 46.6421 46.1421 50 42 50H8C3.85787 50 0.5 46.6421 0.5 42.5V8.5C0.500001 4.35787 3.85786 1 8 1Z" fill="#C6D4F1"/>
<path d="M8 1H42C46.1421 1 49.5 4.35786 49.5 8.5V42.5C49.5 46.6421 46.1421 50 42 50H8C3.85787 50 0.5 46.6421 0.5 42.5V8.5C0.500001 4.35787 3.85786 1 8 1Z" stroke="#A0B6EA"/>
<path d="M10 40.6H40V10.6H10V40.6Z" fill="black"/>
</svg>
