<svg width="20" height="20" viewBox="0 0 20 20" fill="none" xmlns="http://www.w3.org/2000/svg">
<path d="M6.2666 1.23389V2.8999H13.7334V1.23389H14.5996V2.8999H15.833C16.1688 2.8999 16.491 3.03365 16.7285 3.271C16.966 3.50847 17.0995 3.83068 17.0996 4.1665V15.8335C17.0996 16.5376 16.5371 17.1001 15.833 17.1001H4.16699C3.83113 17.1001 3.50901 16.9664 3.27148 16.729C3.03394 16.4915 2.90039 16.1694 2.90039 15.8335V4.1665C2.90057 3.4709 3.47135 2.8999 4.16699 2.8999H5.40039V1.23389H6.2666ZM3.7666 16.2339H16.2334V7.1001H3.7666V16.2339ZM13.1826 9.60986L8.7998 13.9839L6.72363 11.9077L7.04102 11.5903L8.51758 13.0659L8.7998 13.3491L12.8594 9.28955L13.1826 9.60986ZM3.7666 6.23389H16.2334V3.76709H3.7666V6.23389Z" fill="#6B7280" stroke="#6B7280" stroke-width="0.8"/>
</svg>
