<svg width="24" height="24" viewBox="0 0 24 24" fill="none" xmlns="http://www.w3.org/2000/svg">
<path d="M22.1063 0.769922C21.0797 -0.256641 19.4203 -0.256641 18.3937 0.769922L16.9828 2.17617L21.5719 6.76523L22.9828 5.3543C24.0094 4.32773 24.0094 2.66836 22.9828 1.6418L22.1063 0.769922ZM8.08125 11.0824C7.79531 11.3684 7.575 11.7199 7.44844 12.109L6.06094 16.2715C5.925 16.6746 6.03281 17.1199 6.33281 17.4246C6.63281 17.7293 7.07812 17.8324 7.48594 17.6965L11.6484 16.309C12.0328 16.1824 12.3844 15.9621 12.675 15.6762L20.5172 7.8293L15.9234 3.23555L8.08125 11.0824ZM4.5 2.75273C2.01562 2.75273 0 4.76836 0 7.25273V19.2527C0 21.7371 2.01562 23.7527 4.5 23.7527H16.5C18.9844 23.7527 21 21.7371 21 19.2527V14.7527C21 13.923 20.3297 13.2527 19.5 13.2527C18.6703 13.2527 18 13.923 18 14.7527V19.2527C18 20.0824 17.3297 20.7527 16.5 20.7527H4.5C3.67031 20.7527 3 20.0824 3 19.2527V7.25273C3 6.42305 3.67031 5.75273 4.5 5.75273H9C9.82969 5.75273 10.5 5.08242 10.5 4.25273C10.5 3.42305 9.82969 2.75273 9 2.75273H4.5Z" fill="#F68E34"/>
</svg>
