<svg width="100" height="101" viewBox="0 0 100 101" fill="none" xmlns="http://www.w3.org/2000/svg">
<rect y="0.5" width="100" height="100" rx="50" fill="#DCFCE8"/>
<rect x="24" y="24.5" width="52" height="52" rx="26" fill="#86EFAD"/>
<path d="M60.3243 45.3871L47.3243 58.3871C47.2489 58.4627 47.1593 58.5226 47.0606 58.5635C46.962 58.6044 46.8563 58.6254 46.7495 58.6254C46.6427 58.6254 46.537 58.6044 46.4383 58.5635C46.3397 58.5226 46.2501 58.4627 46.1746 58.3871L40.4871 52.6996C40.3347 52.5472 40.249 52.3404 40.249 52.1248C40.249 51.9092 40.3347 51.7024 40.4871 51.55C40.6396 51.3975 40.8464 51.3119 41.062 51.3119C41.2776 51.3119 41.4844 51.3975 41.6368 51.55L46.7495 56.6636L59.1746 44.2375C59.3271 44.085 59.5339 43.9994 59.7495 43.9994C59.9651 43.9994 60.1719 44.085 60.3243 44.2375C60.4768 44.3899 60.5624 44.5967 60.5624 44.8123C60.5624 45.0279 60.4768 45.2347 60.3243 45.3871Z" fill="#15803C"/>
</svg>
