<svg width="64" height="64" viewBox="0 0 64 64" fill="none" xmlns="http://www.w3.org/2000/svg">
<path d="M0 32C0 14.3269 14.3269 0 32 0C49.6731 0 64 14.3269 64 32C64 49.6731 49.6731 64 32 64C14.3269 64 0 49.6731 0 32Z" fill="#FECDCA"/>
<path d="M42 42H22V22H42V42Z" stroke="#E5E7EB"/>
<path d="M42 42H22V22H42V42Z" stroke="#E5E7EB"/>
<path d="M36.7617 26.1367L41.5586 30.9336C41.8398 31.2148 42 31.6016 42 32C42 32.3984 41.8398 32.7852 41.5586 33.0664L36.7617 37.8633C36.5117 38.1133 36.1758 38.25 35.8242 38.25C35.0938 38.25 34.5 37.6562 34.5 36.9258V34.5H29.5C28.8086 34.5 28.25 33.9414 28.25 33.25V30.75C28.25 30.0586 28.8086 29.5 29.5 29.5H34.5V27.0742C34.5 26.3437 35.0938 25.75 35.8242 25.75C36.1758 25.75 36.5117 25.8906 36.7617 26.1367ZM28.25 25.75H25.75C25.0586 25.75 24.5 26.3086 24.5 27V37C24.5 37.6914 25.0586 38.25 25.75 38.25H28.25C28.9414 38.25 29.5 38.8086 29.5 39.5C29.5 40.1914 28.9414 40.75 28.25 40.75H25.75C23.6797 40.75 22 39.0703 22 37V27C22 24.9297 23.6797 23.25 25.75 23.25H28.25C28.9414 23.25 29.5 23.8086 29.5 24.5C29.5 25.1914 28.9414 25.75 28.25 25.75Z" fill="#FC2E5A"/>
</svg>
