<svg width="111" height="116" viewBox="0 0 111 116" fill="none" xmlns="http://www.w3.org/2000/svg">
<path fill-rule="evenodd" clip-rule="evenodd" d="M55.2264 105.95C80.3197 105.95 100.662 85.6078 100.662 60.5145C100.662 35.4212 80.3197 15.0791 55.2264 15.0791C30.1331 15.0791 9.79102 35.4212 9.79102 60.5145C9.79102 85.6078 30.1331 105.95 55.2264 105.95Z" stroke="#A1A1A1" stroke-width="0.305962" stroke-dasharray="1.84 1.84"/>
<path fill-rule="evenodd" clip-rule="evenodd" d="M55.2265 115.588C85.6426 115.588 110.3 90.9308 110.3 60.5147C110.3 30.0986 85.6426 5.44153 55.2265 5.44153C24.8104 5.44153 0.15332 30.0986 0.15332 60.5147C0.15332 90.9308 24.8104 115.588 55.2265 115.588Z" stroke="#A1A1A1" stroke-width="0.305962" stroke-dasharray="1.84 1.84"/>
<path d="M92.086 78.0601C92.0875 71.6482 87.2093 66.2883 80.8255 65.688C74.4417 65.0877 68.6498 69.4442 67.456 75.744L29.2734 74.7083L29.6926 81.2681C29.6926 81.2681 24.248 93.8309 52.8631 97.1781V109.876H85.9438V88.7642C89.745 86.5384 92.0823 82.4651 92.086 78.0601Z" fill="url(#paint0_linear_250_5741)"/>
<path d="M31.0036 81.5436C31.0036 81.5436 25.79 93.574 53.1935 96.7835V108.949H84.8744V76.7323L30.5967 75.2606L31.0036 81.5436Z" fill="#FFCBB4"/>
<path d="M46.8366 31.3396C45.117 34.0532 41.5286 34.8686 38.8051 33.1647L21.7952 21.9558C19.0815 20.2361 18.2661 16.6477 19.9701 13.9242C21.6895 11.2144 25.2732 10.3994 27.9955 12.0992L45.0054 23.3081C47.7212 25.0258 48.5394 28.6145 46.8366 31.3396Z" fill="url(#paint1_linear_250_5741)"/>
<path d="M45.8948 30.7278C44.2964 33.2502 40.961 34.0081 38.4293 32.4244L22.6126 21.9972C20.0903 20.3987 19.3323 17.0633 20.9161 14.5317C22.5145 12.0093 25.8499 11.2514 28.3815 12.8351L44.1952 23.2562C46.7224 24.8539 47.4822 28.1941 45.8948 30.7278Z" fill="#FFCBB4"/>
<path d="M78.8602 90.3679C85.4309 90.3679 90.7576 85.0413 90.7576 78.4706C90.7576 71.8999 85.4309 66.5732 78.8602 66.5732C72.2895 66.5732 66.9629 71.8999 66.9629 78.4706C66.9629 85.0413 72.2895 90.3679 78.8602 90.3679Z" fill="#FFCBB4"/>
<path d="M76.7187 0H31.1426C30.1076 0 29.2686 0.839027 29.2686 1.87402V87.1549C29.2686 88.1899 30.1076 89.0289 31.1426 89.0289H76.7187C77.7537 89.0289 78.5927 88.1899 78.5927 87.1549V1.87402C78.5927 0.839027 77.7537 0 76.7187 0Z" fill="url(#paint2_linear_250_5741)"/>
<path d="M75.8381 1.2041H32.0212C30.8688 1.2041 29.9346 2.13833 29.9346 3.29076V85.7415C29.9346 86.8939 30.8688 87.8281 32.0212 87.8281H75.8381C76.9905 87.8281 77.9247 86.8939 77.9247 85.7415V3.29076C77.9247 2.13833 76.9905 1.2041 75.8381 1.2041Z" fill="white"/>
<path d="M65.9853 3.37598C65.6984 5.27417 64.0698 6.67933 62.15 6.68496H45.5761C43.6569 6.67858 42.0291 5.2736 41.7423 3.37598H32.9612C32.4777 3.37598 32.0139 3.56735 31.6719 3.90909C31.3299 4.25083 31.1377 4.71449 31.1377 5.19798V83.8303C31.1377 84.3138 31.3291 84.7776 31.6708 85.1196C32.0125 85.4616 32.4762 85.6538 32.9597 85.6538H74.8979C75.3814 85.6538 75.8453 85.4624 76.1873 85.1207C76.5293 84.779 76.7215 84.3153 76.7215 83.8318V5.19951C76.7215 4.71602 76.5301 4.25219 76.1884 3.91017C75.8466 3.56815 75.383 3.37598 74.8995 3.37598H65.9853Z" fill="#263238"/>
<path d="M59.0384 4.41211H48.9554C48.7864 4.41211 48.6494 4.54909 48.6494 4.71807V4.77467C48.6494 4.94365 48.7864 5.08064 48.9554 5.08064H59.0384C59.2073 5.08064 59.3443 4.94365 59.3443 4.77467V4.71807C59.3443 4.54909 59.2073 4.41211 59.0384 4.41211Z" fill="#DBDBDB"/>
<path d="M61.6166 5.17844C61.8918 5.17844 62.115 4.9553 62.115 4.68004C62.115 4.40478 61.8918 4.18164 61.6166 4.18164C61.3413 4.18164 61.1182 4.40478 61.1182 4.68004C61.1182 4.9553 61.3413 5.17844 61.6166 5.17844Z" fill="#DBDBDB"/>
<path d="M86.5505 80.5695C83.0977 81.3681 80.728 79.1162 79.9295 75.6649L71.9959 46.2054C71.2065 42.7407 73.3626 39.2888 76.8224 38.4783C80.2871 37.6889 83.739 39.8451 84.5495 43.3048L91.0236 73.5247C91.8222 76.9775 90.0017 79.7709 86.5505 80.5695Z" fill="url(#paint3_linear_250_5741)"/>
<path d="M83.6595 44.0259C82.9864 41.1126 80.079 39.2965 77.1657 39.9697C74.2523 40.6428 72.4363 43.5502 73.1094 46.4635L80.4047 78.0377C81.0778 80.951 83.9852 82.767 86.8985 82.0939C89.8119 81.4208 91.6279 78.5134 90.9548 75.6L83.6595 44.0259Z" fill="#FFCBB4"/>
<path d="M90.7072 104.968H45.4248V115.524H90.7072V104.968Z" fill="url(#paint4_linear_250_5741)"/>
<path d="M89.4831 106.191H46.6484V114.452H89.4831V106.191Z" fill="#DE1B51"/>
<path d="M40.2349 62.9428C38.5361 65.6242 34.9906 66.4301 32.2997 64.7465L20.8919 57.3651C18.2106 55.6664 17.4047 52.1209 19.0883 49.43C20.7871 46.7487 24.3325 45.9428 27.0234 47.6264L38.4312 55.0077C41.1126 56.7065 41.9184 60.2519 40.2349 62.9428Z" fill="url(#paint5_linear_250_5741)"/>
<path d="M37.3708 78.5662C35.6569 81.2721 32.0791 82.0856 29.3637 80.3867L22.2975 75.2343C19.5916 73.5204 18.7782 69.9426 20.4771 67.2272C22.191 64.5213 25.7687 63.7079 28.4841 65.4068L35.5503 70.5607C38.2553 72.2745 39.0686 75.8511 37.3708 78.5662Z" fill="url(#paint6_linear_250_5741)"/>
<g opacity="0.5">
<path d="M53.929 58.2751C61.528 58.2751 67.6882 52.1149 67.6882 44.516C67.6882 36.917 61.528 30.7568 53.929 30.7568C46.3301 30.7568 40.1699 36.917 40.1699 44.516C40.1699 52.1149 46.3301 58.2751 53.929 58.2751Z" fill="url(#paint7_linear_250_5741)"/>
</g>
<path d="M53.9293 57.4661C61.0813 57.4661 66.8792 51.6683 66.8792 44.5163C66.8792 37.3643 61.0813 31.5664 53.9293 31.5664C46.7773 31.5664 40.9795 37.3643 40.9795 44.5163C40.9795 51.6683 46.7773 57.4661 53.9293 57.4661Z" fill="#1C8C6E"/>
<path d="M48.3091 42.787L53.1647 47.2387L60.0443 37.1221L62.4736 39.146L53.1647 51.2866L46.2852 43.5978L48.3091 42.787Z" fill="white"/>
<path d="M36.8004 78.1829C35.2019 80.7053 31.8665 81.4633 29.3349 79.8795L22.7445 75.082C20.2221 73.4835 19.4641 70.1481 21.0479 67.6165C22.6464 65.0942 25.9818 64.3362 28.5134 65.92L35.1023 70.7266C37.6196 72.3242 38.3776 75.6529 36.8004 78.1829Z" fill="#FFCBB4"/>
<path d="M39.6072 62.5369C38.0087 65.0592 34.6733 65.8172 32.1417 64.2334L21.4085 57.2881C18.8862 55.6896 18.1282 52.3542 19.712 49.8226C21.3104 47.3002 24.6458 46.5423 27.1774 48.126L37.9106 55.0714C40.433 56.6698 41.1909 60.0052 39.6072 62.5369Z" fill="#FFCBB4"/>
<path d="M43.1837 47.392C41.4765 50.0852 37.9151 50.8944 35.2118 49.2033L20.7551 39.7904C18.062 38.0833 17.2528 34.5218 18.9438 31.8186C20.6509 29.1255 24.2124 28.3163 26.9156 30.0073L41.3724 39.4202C44.0655 41.1273 44.8747 44.6888 43.1837 47.392Z" fill="url(#paint8_linear_250_5741)"/>
<path d="M42.4163 46.9029C40.8178 49.4253 37.4824 50.1833 34.9508 48.5995L21.4105 39.7832C18.8881 38.1847 18.1301 34.8493 19.7139 32.3177C21.3124 29.7954 24.6478 29.0374 27.1794 30.6211L40.7182 39.4374C43.2411 41.0354 43.9998 44.3709 42.4163 46.9029Z" fill="#FFCBB4"/>
<defs>
<linearGradient id="paint0_linear_250_5741" x1="60.682" y1="109.883" x2="60.682" y2="65.635" gradientUnits="userSpaceOnUse">
<stop stop-color="#808080" stop-opacity="0.25"/>
<stop offset="0.54" stop-color="#808080" stop-opacity="0.12"/>
<stop offset="1" stop-color="#808080" stop-opacity="0.1"/>
</linearGradient>
<linearGradient id="paint1_linear_250_5741" x1="33.4018" y1="34.0566" x2="33.4018" y2="11.2104" gradientUnits="userSpaceOnUse">
<stop stop-color="#808080" stop-opacity="0.25"/>
<stop offset="0.54" stop-color="#808080" stop-opacity="0.12"/>
<stop offset="1" stop-color="#808080" stop-opacity="0.1"/>
</linearGradient>
<linearGradient id="paint2_linear_250_5741" x1="53.9306" y1="89.0274" x2="53.9306" y2="-0.00152828" gradientUnits="userSpaceOnUse">
<stop stop-color="#808080" stop-opacity="0.25"/>
<stop offset="0.54" stop-color="#808080" stop-opacity="0.12"/>
<stop offset="1" stop-color="#808080" stop-opacity="0.1"/>
</linearGradient>
<linearGradient id="paint3_linear_250_5741" x1="81.5205" y1="80.7286" x2="81.5205" y2="38.3131" gradientUnits="userSpaceOnUse">
<stop stop-color="#808080" stop-opacity="0.25"/>
<stop offset="0.54" stop-color="#808080" stop-opacity="0.12"/>
<stop offset="1" stop-color="#808080" stop-opacity="0.1"/>
</linearGradient>
<linearGradient id="paint4_linear_250_5741" x1="68.0691" y1="115.521" x2="68.0691" y2="104.965" gradientUnits="userSpaceOnUse">
<stop stop-color="#808080" stop-opacity="0.25"/>
<stop offset="0.54" stop-color="#808080" stop-opacity="0.12"/>
<stop offset="1" stop-color="#808080" stop-opacity="0.1"/>
</linearGradient>
<linearGradient id="paint5_linear_250_5741" x1="29.6593" y1="65.6261" x2="29.6593" y2="46.7483" gradientUnits="userSpaceOnUse">
<stop stop-color="#808080" stop-opacity="0.25"/>
<stop offset="0.54" stop-color="#808080" stop-opacity="0.12"/>
<stop offset="1" stop-color="#808080" stop-opacity="0.1"/>
</linearGradient>
<linearGradient id="paint6_linear_250_5741" x1="28.9247" y1="81.274" x2="28.9247" y2="64.5179" gradientUnits="userSpaceOnUse">
<stop stop-color="#808080" stop-opacity="0.25"/>
<stop offset="0.54" stop-color="#808080" stop-opacity="0.12"/>
<stop offset="1" stop-color="#808080" stop-opacity="0.1"/>
</linearGradient>
<linearGradient id="paint7_linear_250_5741" x1="53.929" y1="58.2751" x2="53.929" y2="30.7553" gradientUnits="userSpaceOnUse">
<stop stop-color="#808080" stop-opacity="0.25"/>
<stop offset="0.54" stop-color="#808080" stop-opacity="0.12"/>
<stop offset="1" stop-color="#808080" stop-opacity="0.1"/>
</linearGradient>
<linearGradient id="paint8_linear_250_5741" x1="31.063" y1="50.0922" x2="31.063" y2="29.1292" gradientUnits="userSpaceOnUse">
<stop stop-color="#808080" stop-opacity="0.25"/>
<stop offset="0.54" stop-color="#808080" stop-opacity="0.12"/>
<stop offset="1" stop-color="#808080" stop-opacity="0.1"/>
</linearGradient>
</defs>
</svg>
