<svg width="24" height="24" viewBox="0 0 24 24" fill="none" xmlns="http://www.w3.org/2000/svg">
<path fill-rule="evenodd" clip-rule="evenodd" d="M5.8745 3.67007C4.747 4.45007 4.051 5.77307 4.003 7.15257C3.8745 11.0516 7.6655 14.1326 10.7205 16.6146C11.1675 16.9781 11.599 17.3286 12 17.6671C12.36 17.3681 12.745 17.0581 13.143 16.7371C16.2295 14.2481 20.1365 11.0971 19.9965 7.15257C19.9485 5.77257 19.2525 4.45007 18.125 3.67107C16.3305 2.42207 14.1775 3.07857 12.708 4.33057C12.4485 4.55107 12.211 4.79057 12 5.04107C11.7885 4.79057 11.5505 4.55107 11.2915 4.33107C9.8215 3.08057 7.669 2.42907 5.8745 3.67107M11.4995 13.2711V15.9596L11.306 15.8021C10.016 14.7536 8.6585 13.6496 7.499 12.4096C5.9365 10.7376 4.9425 9.02256 5.0025 7.18707C5.0405 6.10907 5.5875 5.08507 6.4425 4.49407H6.4435C7.2085 3.96407 8.0655 3.89407 8.923 4.14207C9.8015 4.39707 10.6425 4.98207 11.2345 5.68557L12 6.59357L12.765 5.68457C13.3585 4.97957 14.1995 4.39307 15.078 4.13807C15.9345 3.88907 16.79 3.95907 17.5545 4.49107L17.557 4.49307C18.4125 5.08407 18.96 6.10807 18.997 7.18707V7.18807C19.062 9.01507 18.072 10.7381 16.509 12.4156C15.309 13.7041 13.888 14.8506 12.553 15.9271L12.5 15.9701V14.2046C12.637 14.1896 12.82 14.1651 13.019 14.1296C13.2407 14.091 13.4595 14.0376 13.674 13.9696C13.8815 13.9016 14.1205 13.8016 14.306 13.6461C14.491 13.4906 14.631 13.2731 14.734 13.0811C14.842 12.8801 14.933 12.6611 15.005 12.4641C15.1405 12.0966 15.2235 11.7736 15.236 11.7251C15.256 11.6483 15.2575 11.5679 15.2403 11.4905C15.2231 11.4131 15.1877 11.3409 15.1371 11.2798C15.0865 11.2188 15.0221 11.1706 14.9493 11.1394C14.8764 11.1081 14.7971 11.0946 14.718 11.1001H14.716L14.712 11.1006L14.6985 11.1016L14.651 11.1056C14.611 11.1091 14.5535 11.1141 14.484 11.1221C14.345 11.1371 14.154 11.1621 13.946 11.1991C13.7241 11.2376 13.5051 11.291 13.2905 11.3591C13.083 11.4271 12.8445 11.5271 12.659 11.6831C12.6017 11.7314 12.5487 11.7844 12.5 11.8421V10.7046C12.637 10.6896 12.82 10.6651 13.019 10.6296C13.2407 10.591 13.4595 10.5376 13.674 10.4696C13.8815 10.4016 14.1205 10.3016 14.306 10.1461C14.491 9.99057 14.631 9.77307 14.734 9.58107C14.842 9.38007 14.933 9.16107 15.005 8.96407C15.1405 8.59657 15.2235 8.27357 15.236 8.22507C15.256 8.14833 15.2575 8.06794 15.2403 7.99052C15.2231 7.91311 15.1877 7.84089 15.1371 7.77983C15.0865 7.71878 15.0221 7.67063 14.9493 7.63938C14.8764 7.60812 14.7971 7.59464 14.718 7.60007H14.716L14.712 7.60057L14.6985 7.60157L14.651 7.60557C14.611 7.60907 14.5535 7.61407 14.484 7.62207C14.345 7.63707 14.154 7.66207 13.946 7.69907C13.7241 7.73758 13.5051 7.79103 13.2905 7.85907C13.083 7.92707 12.8445 8.02707 12.659 8.18257C12.4735 8.33807 12.334 8.55557 12.231 8.74757C12.187 8.82957 12.1458 8.91357 12.1075 8.99957C12.0521 8.8029 11.9893 8.60842 11.919 8.41657C11.8426 8.20521 11.7521 7.99924 11.648 7.80007C11.545 7.60807 11.405 7.39107 11.22 7.23557C11.035 7.08056 10.796 6.98007 10.5885 6.91157C10.374 6.84355 10.1552 6.7901 9.9335 6.75157C9.68401 6.70732 9.43256 6.67495 9.18 6.65457L9.167 6.65357H9.161C9.08188 6.64814 9.00261 6.66162 8.92973 6.69288C8.85685 6.72413 8.79245 6.77228 8.74185 6.83333C8.69125 6.89439 8.65589 6.96661 8.6387 7.04402C8.62152 7.12144 8.62299 7.20183 8.643 7.27857C8.6555 7.32657 8.738 7.64957 8.874 8.01707C8.946 8.21357 9.037 8.43306 9.145 8.63407C9.248 8.82607 9.388 9.04357 9.573 9.19907C9.758 9.35457 9.997 9.45457 10.2045 9.52257C10.4215 9.59407 10.654 9.64507 10.8595 9.68257C11.0716 9.72034 11.2851 9.74953 11.4995 9.77007V11.0541C11.4218 10.9354 11.3277 10.8283 11.22 10.7361C11.035 10.5801 10.796 10.4801 10.5885 10.4121C10.374 10.3441 10.1552 10.2906 9.9335 10.2521C9.69967 10.2104 9.4641 10.1792 9.2275 10.1586L9.18 10.1546L9.167 10.1536H9.161C9.08188 10.1481 9.00261 10.1616 8.92973 10.1929C8.85685 10.2241 8.79245 10.2723 8.74185 10.3333C8.69125 10.3944 8.65589 10.4666 8.6387 10.544C8.62152 10.6214 8.62299 10.7018 8.643 10.7786C8.6555 10.8266 8.738 11.1496 8.874 11.5176C8.946 11.7141 9.037 11.9326 9.145 12.1341C9.248 12.3261 9.388 12.5436 9.573 12.6991C9.758 12.8546 9.997 12.9546 10.2045 13.0226C10.4215 13.0941 10.654 13.1456 10.8595 13.1826C11.0716 13.2203 11.2851 13.2495 11.4995 13.2701M10.026 8.16107C9.95616 8.02879 9.89486 7.89218 9.8425 7.75207C9.9945 7.78207 10.1445 7.81807 10.2765 7.86157C10.4435 7.91656 10.5385 7.96857 10.5775 8.00157C10.616 8.03407 10.684 8.11807 10.7665 8.27207C10.8325 8.39507 10.8945 8.53707 10.9505 8.68157C10.8036 8.6542 10.6587 8.61746 10.5165 8.57157C10.3495 8.51707 10.2545 8.46507 10.2155 8.43207C10.177 8.39957 10.109 8.31557 10.026 8.16107ZM13.3625 9.51907C13.2305 9.56257 13.0805 9.59907 12.9285 9.62857C12.982 9.48874 13.0432 9.35202 13.112 9.21907C13.195 9.06507 13.2625 8.98106 13.302 8.94857C13.3405 8.91557 13.4355 8.86357 13.602 8.80857C13.7345 8.76507 13.8845 8.72857 14.036 8.69907C13.9805 8.84407 13.9185 8.98557 13.8525 9.10807C13.77 9.26257 13.7025 9.34657 13.663 9.37907C13.624 9.41207 13.5295 9.46407 13.3625 9.51907ZM12.9285 13.1286C13.0805 13.0986 13.2305 13.0626 13.3625 13.0191C13.5295 12.9641 13.624 12.9121 13.663 12.8791C13.702 12.8466 13.77 12.7626 13.853 12.6081C13.918 12.4856 13.9805 12.3436 14.036 12.1991C13.8845 12.2291 13.7345 12.2651 13.6025 12.3086C13.4355 12.3636 13.3405 12.4156 13.3015 12.4486C13.2625 12.4811 13.195 12.5651 13.112 12.7196C13.0432 12.8524 12.982 12.9889 12.9285 13.1286ZM9.8425 11.2521C9.8985 11.3971 9.9605 11.5386 10.026 11.6611C10.109 11.8161 10.177 11.8996 10.216 11.9326C10.255 11.9651 10.3495 12.0176 10.516 12.0726C10.6485 12.1156 10.7985 12.1516 10.9505 12.1816C10.898 12.0414 10.8365 11.9048 10.7665 11.7726C10.684 11.6176 10.6165 11.5341 10.5775 11.5016C10.5385 11.4691 10.4435 11.4166 10.2765 11.3616C10.1343 11.3158 9.98935 11.2793 9.8425 11.2521Z" fill="#5A5A5A"/>
<path d="M4.4785 17.3176C4.687 17.5281 4.894 17.7376 5.0885 18.0036V18.5001H8V18.0036C7.951 17.6171 7.865 16.9206 7.8575 16.7271C7.847 16.4551 7.463 15.9586 7.463 15.9586L6.2855 14.5446C6.2855 14.5446 5.952 14.2096 5.761 13.8376C5.57 13.4656 5.1645 13.9336 5.1105 14.2681C5.0565 14.6031 5.159 14.7791 5.159 14.7791L5.832 16.0526C5.832 16.0526 5.052 15.0351 4.8095 14.6261C4.687 14.4191 4.6525 13.9801 4.6145 13.4901C4.577 13.0121 4.536 12.4856 4.4055 12.0761C4.141 11.2461 3.3755 11.4541 3.243 11.8246C3.1105 12.1956 2.961 14.6456 3.009 15.0536C3.047 15.3736 3.249 15.6866 3.478 16.0391C3.54167 16.1368 3.60583 16.2379 3.6705 16.3426C3.9265 16.7601 4.204 17.0401 4.4785 17.3176ZM19.495 17.3176C19.7685 17.0401 20.045 16.7601 20.3 16.3426C20.3647 16.2379 20.4287 16.1369 20.492 16.0396C20.72 15.6866 20.922 15.3736 20.959 15.0536C21.007 14.6456 21.037 12.1956 20.905 11.8246C20.7725 11.4541 20.01 11.2461 19.7465 12.0761C19.6165 12.4856 19.5755 13.0121 19.5385 13.4901C19.5 13.9801 19.466 14.4191 19.3435 14.6261C19.102 15.0351 18.3245 16.0526 18.3245 16.0526L18.9955 14.7791C18.9955 14.7791 19.0975 14.6031 19.044 14.2686C18.99 13.9336 18.5855 13.4656 18.3955 13.8376C18.2055 14.2091 17.873 14.5446 17.873 14.5446L16.699 15.9591C16.699 15.9591 16.3165 16.4551 16.306 16.7271C16.3025 16.8181 16.246 17.0201 16.181 17.2486C16.1085 17.5066 16.026 17.7986 16 18.0036V18.5001H18.8865V18.0036C19.0805 17.7371 19.287 17.5286 19.495 17.3176ZM16 20.5001C16 20.6327 16.0527 20.7599 16.1464 20.8536C16.2402 20.9474 16.3674 21.0001 16.5 21.0001H18.5C18.6326 21.0001 18.7598 20.9474 18.8536 20.8536C18.9473 20.7599 19 20.6327 19 20.5001V19.5001C19 19.3675 18.9473 19.2403 18.8536 19.1465C18.7598 19.0528 18.6326 19.0001 18.5 19.0001H16.5C16.3674 19.0001 16.2402 19.0528 16.1464 19.1465C16.0527 19.2403 16 19.3675 16 19.5001V20.5001ZM8 20.5001C8 20.6327 7.94732 20.7599 7.85355 20.8536C7.75978 20.9474 7.63261 21.0001 7.5 21.0001H5.5C5.36739 21.0001 5.24021 20.9474 5.14645 20.8536C5.05268 20.7599 5 20.6327 5 20.5001V19.5001C5 19.3675 5.05268 19.2403 5.14645 19.1465C5.24021 19.0528 5.36739 19.0001 5.5 19.0001H7.5C7.63261 19.0001 7.75978 19.0528 7.85355 19.1465C7.94732 19.2403 8 19.3675 8 19.5001V20.5001Z" fill="#5A5A5A"/>
</svg>
