<svg width="24" height="24" viewBox="0 0 24 24" fill="none" xmlns="http://www.w3.org/2000/svg">
<path d="M11.5 15H7C5.93913 15 4.92172 15.4214 4.17157 16.1716C3.42143 16.9217 3 17.9391 3 19V21" stroke="#F68E34" stroke-width="1.5" stroke-linecap="round" stroke-linejoin="round"/>
<path d="M21.379 16.626C21.7773 16.2277 22.0011 15.6874 22.0011 15.124C22.0011 14.5607 21.7773 14.0204 21.379 13.622C20.9806 13.2237 20.4403 12.9999 19.877 12.9999C19.3136 12.9999 18.7733 13.2237 18.375 13.622L14.365 17.634C14.1272 17.8716 13.9532 18.1654 13.859 18.488L13.022 21.358C12.9969 21.4441 12.9954 21.5353 13.0176 21.6221C13.0398 21.7089 13.085 21.7882 13.1484 21.8516C13.2118 21.915 13.291 21.9601 13.3779 21.9824C13.4647 22.0046 13.5559 22.0031 13.642 21.978L16.512 21.141C16.8346 21.0468 17.1283 20.8728 17.366 20.635L21.379 16.626Z" stroke="#F68E34" stroke-width="1.5" stroke-linecap="round" stroke-linejoin="round"/>
<path d="M10 11C12.2091 11 14 9.20914 14 7C14 4.79086 12.2091 3 10 3C7.79086 3 6 4.79086 6 7C6 9.20914 7.79086 11 10 11Z" stroke="#F68E34" stroke-width="1.5" stroke-linecap="round" stroke-linejoin="round"/>
</svg>
