<svg width="24" height="24" viewBox="0 0 24 24" fill="none" xmlns="http://www.w3.org/2000/svg">
<path d="M17 17C16.337 17 15.7011 16.7366 15.2322 16.2678C14.7634 15.7989 14.5 15.163 14.5 14.5C14.5 13.837 14.7634 13.2011 15.2322 12.7322C15.7011 12.2634 16.337 12 17 12C17.663 12 18.2989 12.2634 18.7678 12.7322C19.2366 13.2011 19.5 13.837 19.5 14.5C19.5 15.163 19.2366 15.7989 18.7678 16.2678C18.2989 16.7366 17.663 17 17 17ZM17 17C18.1935 17 19.3381 17.4741 20.182 18.318C21.0259 19.1619 21.5 20.3065 21.5 21.5M17 17C15.8065 17 14.6619 17.4741 13.818 18.318C12.9741 19.1619 12.5 20.3065 12.5 21.5M7 7.5C6.33696 7.5 5.70107 7.23661 5.23223 6.76777C4.76339 6.29893 4.5 5.66304 4.5 5C4.5 4.33696 4.76339 3.70107 5.23223 3.23223C5.70107 2.76339 6.33696 2.5 7 2.5C7.66304 2.5 8.29893 2.76339 8.76777 3.23223C9.23661 3.70107 9.5 4.33696 9.5 5C9.5 5.66304 9.23661 6.29893 8.76777 6.76777C8.29893 7.23661 7.66304 7.5 7 7.5ZM7 7.5C8.19347 7.5 9.33807 7.97411 10.182 8.81802C11.0259 9.66193 11.5 10.8065 11.5 12M7 7.5C5.80653 7.5 4.66193 7.97411 3.81802 8.81802C2.97411 9.66193 2.5 10.8065 2.5 12M3.5 15.5C3.5 18.264 5.736 20.5 8.5 20.5L8 18.5M18.5 8.5C18.5 5.736 16.264 3.5 13.5 3.5L14 5.5" stroke="#F68E34" stroke-width="1.5" stroke-linecap="round" stroke-linejoin="round"/>
</svg>
