<svg width="24" height="24" viewBox="0 0 24 24" fill="none" xmlns="http://www.w3.org/2000/svg">
<path fill-rule="evenodd" clip-rule="evenodd" d="M7.5 3L10.3575 5.8625C10.4322 5.93787 10.4803 6.03556 10.4944 6.14074C10.5086 6.24592 10.488 6.35285 10.4359 6.44528C10.3837 6.5377 10.3028 6.61059 10.2055 6.65286C10.1081 6.69514 9.99964 6.70449 9.8965 6.6795V8.507H7.6175V6.8955H7.3825V8.507H5.1035V6.6795C5.00036 6.70449 4.89188 6.69514 4.79453 6.65286C4.69719 6.61059 4.6163 6.5377 4.56414 6.44528C4.51199 6.35285 4.49142 6.24592 4.50557 6.14074C4.51971 6.03556 4.56779 5.93787 4.6425 5.8625L5.2405 5.2635L5.251 5.253L7.5 3ZM7.2395 5.932C7.0088 5.96642 6.79815 6.08261 6.64598 6.25939C6.4938 6.43616 6.41023 6.66175 6.4105 6.895V7.533H6.0755V5.804L7.5 4.3775L8.925 5.8045V7.5335H8.5895V6.895C8.58963 6.63703 8.48732 6.38957 8.30505 6.20702C8.12277 6.02446 7.87547 5.92177 7.6175 5.9215H7.3825C7.33383 5.9215 7.28617 5.92483 7.2395 5.9315" fill="#5A5A5A"/>
<path d="M4 12.0155C4 10.9195 4.22 9.94547 4.617 8.99397H5.682C5.23196 9.93741 4.99892 10.9697 5 12.015C5 13.0255 5.2135 13.986 5.597 14.854L4.846 15.606C4.28815 14.4914 3.99845 13.2619 4 12.0155ZM12 5.00347C11.441 5.00347 10.8975 5.06897 10.3765 5.19347L9.565 4.37997C10.3522 4.1288 11.1737 4.00112 12 4.00147C16.4185 4.00147 20 7.58947 20 12.0155C19.9997 12.4318 19.9688 12.8393 19.9075 13.238L18.9935 12.3225C18.9978 12.2208 19 12.1183 19 12.015C19 8.14247 15.866 5.00297 12 5.00297" fill="#5A5A5A"/>
<path fill-rule="evenodd" clip-rule="evenodd" d="M18.1175 15.9109H17.8825V17.5224H15.6035V15.6949C15.5004 15.7199 15.3919 15.7105 15.2945 15.6682C15.1972 15.626 15.1163 15.5531 15.0641 15.4607C15.012 15.3682 14.9914 15.2613 15.0056 15.1561C15.0197 15.0509 15.0678 14.9533 15.1425 14.8779L15.7405 14.2794L15.751 14.2684L18 12.0154L20.8575 14.8784C20.932 14.9538 20.9798 15.0514 20.9939 15.1565C21.0079 15.2615 20.9873 15.3683 20.9351 15.4606C20.883 15.5529 20.8023 15.6257 20.7051 15.668C20.6079 15.7103 20.4995 15.7197 20.3965 15.6949V17.5224H18.1175V15.9109ZM18.3525 14.9659C18.5833 15.0235 18.7849 15.1639 18.919 15.3604C19.0265 15.5169 19.089 15.7064 19.089 15.9104V16.5489H19.4245V14.8199L18 13.3929L16.575 14.8199V16.5489H16.9105V15.9109C16.9105 15.3729 17.3455 14.9369 17.8825 14.9369H18.1175C18.1985 14.9369 18.2768 14.9465 18.3525 14.9659Z" fill="#5A5A5A"/>
<path d="M17.31 18.0095H15.635C14.5405 18.6779 13.2824 19.0304 12 19.028C11.4438 19.0285 10.8896 18.9627 10.349 18.832C10.2188 19.0524 10.0067 19.2123 9.759 19.277V19.711C10.4871 19.9229 11.2417 20.0301 12 20.0295C14.038 20.0295 15.898 19.2665 17.31 18.0095Z" fill="#5A5A5A"/>
<path fill-rule="evenodd" clip-rule="evenodd" d="M9.276 21.0001H6.741V19.0656H6.2585V21.0001H3.724V18.7591C3.63197 18.8121 3.525 18.8334 3.41968 18.8194C3.31435 18.8055 3.21657 18.7572 3.1415 18.6821C3.05127 18.5912 3.00064 18.4684 3.00064 18.3403C3.00064 18.2123 3.05127 18.0894 3.1415 17.9986L6.5 14.6331L9.8585 17.9981C9.92204 18.0619 9.96649 18.1423 9.98685 18.2301C10.0072 18.3178 10.0027 18.4095 9.97371 18.4949C9.94476 18.5802 9.89257 18.6558 9.82302 18.713C9.75346 18.7703 9.66929 18.807 9.58 18.8191C9.47483 18.8328 9.36805 18.8118 9.276 18.7591V21.0001ZM7.4 18.3581C7.49683 18.4487 7.57403 18.5583 7.62684 18.68C7.67964 18.8017 7.70692 18.9329 7.707 19.0656V20.0331H8.3105V17.8151L6.5 16.0016L4.69 17.8151V20.0331H5.293V19.0651C5.293 18.5311 5.7255 18.0981 6.2585 18.0981H6.7415C6.996 18.0981 7.2275 18.1966 7.4 18.3581Z" fill="#5A5A5A"/>
<path d="M11 15.522V13.0175H8.5V11.014H11V8.50952H13V11.014H15.5V13.0175H13V15.522H11Z" fill="#5A5A5A"/>
</svg>
