<svg width="24" height="24" viewBox="0 0 24 24" fill="none" xmlns="http://www.w3.org/2000/svg">
<path d="M21.8242 9.00094L21.8439 9.05708L21.9172 9.29965L21.9785 9.51736L22.0046 9.61679L22.0475 9.79679C22.6034 12.3051 22.1976 14.9306 20.9104 17.1541C19.6262 19.3844 17.5502 21.0503 15.0947 21.8212L14.9216 21.8727L14.709 21.9275L14.4017 22.0004C14.2932 22.0251 14.1807 22.0272 14.0713 22.0065C13.962 21.9858 13.858 21.9427 13.766 21.8801C13.674 21.8174 13.5959 21.7365 13.5366 21.6423C13.4772 21.5481 13.4379 21.4427 13.4212 21.3327C13.3867 21.1068 13.4383 20.8762 13.5658 20.6866C13.6933 20.497 13.8873 20.3621 14.1095 20.3088L14.3567 20.2467C14.511 20.2061 14.6437 20.1671 14.7549 20.1297C16.7268 19.4639 18.3878 18.1009 19.4259 16.2969C20.47 14.4943 20.8194 12.3722 20.4082 10.3299L20.3786 10.1958L20.3392 10.0394L20.2899 9.86022L20.2307 9.65879C20.1645 9.43906 20.1832 9.20247 20.2833 8.99591C20.3833 8.78936 20.5573 8.62794 20.7707 8.54365C20.8699 8.50446 20.9759 8.48521 21.0825 8.48698C21.1891 8.48876 21.2944 8.51153 21.3922 8.554C21.49 8.59646 21.5785 8.65779 21.6527 8.73448C21.7268 8.81117 21.7851 8.90171 21.8242 9.00094ZM3.16502 8.53722C3.18359 8.54294 3.20188 8.54922 3.21988 8.55608C3.43286 8.63909 3.60688 8.79908 3.70746 9.00435C3.80803 9.20963 3.82781 9.44519 3.76288 9.66436C3.68574 9.92408 3.63002 10.1402 3.59574 10.3128C3.18634 12.3534 3.5361 14.4733 4.57931 16.2742C5.61827 18.0798 7.28129 19.4435 9.25545 20.1087L9.38659 20.1502L9.46116 20.1717L9.62831 20.2171L9.92574 20.2904C10.1492 20.3429 10.3447 20.4775 10.4736 20.6675C10.6024 20.8574 10.6551 21.0889 10.6213 21.3159C10.5896 21.5288 10.4746 21.7204 10.3016 21.8485C10.1287 21.9766 9.91191 22.0308 9.69902 21.9991L9.63988 21.9884L9.39302 21.9305L9.17445 21.8748L8.98331 21.8212L8.89759 21.7955C6.44713 21.0225 4.3761 19.3579 3.09431 17.1309C1.80478 14.9036 1.39985 12.2728 1.95988 9.76079L1.99288 9.62365L2.03574 9.46293L2.11888 9.17794L2.15145 9.07079C2.18293 8.96917 2.23412 8.87475 2.30209 8.79291C2.37007 8.71107 2.4535 8.64343 2.54762 8.59384C2.64175 8.54425 2.74471 8.51369 2.85065 8.5039C2.95658 8.49412 3.06341 8.50572 3.16502 8.53722ZM12.0219 5.14294C15.8092 5.14294 18.879 8.21279 18.879 12.0001C18.879 15.7874 15.8092 18.8572 12.0219 18.8572C8.23459 18.8572 5.16474 15.7874 5.16474 12.0001C5.16474 8.21279 8.23502 5.14294 12.0219 5.14294ZM12.0219 6.85722C9.18174 6.85722 6.87902 9.15993 6.87902 12.0001C6.87902 14.8402 9.18174 17.1429 12.0219 17.1429C14.8624 17.1429 17.1647 14.8402 17.1647 12.0001C17.1647 9.15993 14.8624 6.85722 12.0219 6.85722ZM12.0219 1.71436C14.5956 1.71121 17.0765 2.67589 18.972 4.41693L19.0745 4.51422L19.1923 4.63165L19.3252 4.76965L19.4734 4.92779C19.5491 5.00942 19.6071 5.10577 19.6439 5.21082C19.6806 5.31587 19.6953 5.42736 19.6871 5.53835C19.6789 5.64934 19.6478 5.75744 19.596 5.85591C19.5441 5.95437 19.4725 6.04109 19.3856 6.11065C19.2072 6.25358 18.9816 6.32427 18.7536 6.30871C18.5255 6.29315 18.3116 6.19248 18.1543 6.02665C18.0612 5.92808 17.9747 5.83993 17.895 5.76222L17.745 5.61908L17.6764 5.55779C16.114 4.18285 14.1032 3.42573 12.0219 3.42865C9.93864 3.42563 7.92613 4.18406 6.36302 5.56122L6.31416 5.60493L6.20574 5.70779L6.08274 5.82994L5.87059 6.05065C5.54488 6.39736 5.00745 6.43636 4.63502 6.14065C4.5515 6.07434 4.48186 5.99223 4.43008 5.899C4.37831 5.80577 4.34541 5.70325 4.33327 5.59731C4.32113 5.49136 4.32999 5.38406 4.35934 5.28153C4.38868 5.17901 4.43795 5.08327 4.50431 4.99979L4.54288 4.95436L4.71645 4.76965L4.87416 4.60765C4.94902 4.53251 5.01816 4.46608 5.08159 4.40836C6.9758 2.67284 9.45239 1.71145 12.0214 1.71436" fill="#6B7280"/>
</svg>
