<svg width="24" height="24" viewBox="0 0 24 24" fill="none" xmlns="http://www.w3.org/2000/svg">
<path d="M13.3738 9.66801H14.5908L14.6608 9.99901L14.9118 9.81901C15.2006 9.64326 15.5371 9.56227 15.8742 9.58738C16.2114 9.61248 16.5322 9.74243 16.7918 9.95901C17.2268 10.339 17.5088 10.865 17.5858 11.437C17.7121 12.1116 17.6463 12.8081 17.3958 13.447C17.2927 13.7394 17.1135 13.999 16.8765 14.1989C16.6395 14.3988 16.3534 14.5318 16.0478 14.584C15.6612 14.6597 15.2603 14.5804 14.9318 14.363L14.7818 14.273V15.83L13.3938 16.122L13.3738 9.66801ZM14.7608 12.101V13.046C14.7596 13.0762 14.7653 13.1063 14.7774 13.1341C14.7895 13.1618 14.8078 13.1864 14.8308 13.206C14.9186 13.2825 15.0218 13.3393 15.1335 13.3725C15.2452 13.4056 15.3626 13.4145 15.478 13.3984C15.5934 13.3823 15.7039 13.3416 15.8022 13.2791C15.9005 13.2165 15.9843 13.1337 16.0478 13.036C16.2268 12.7323 16.3111 12.382 16.2898 12.03C16.2932 11.7123 16.202 11.4007 16.0278 11.135C15.9669 11.0356 15.8846 10.951 15.7869 10.8874C15.6892 10.8238 15.5785 10.7829 15.4629 10.7676C15.3473 10.7522 15.2298 10.7629 15.1189 10.7988C15.008 10.8347 14.9064 10.8949 14.8218 10.975C14.7857 11.013 14.7645 11.0627 14.7618 11.115C14.7518 11.467 14.7618 11.789 14.7618 12.101M19.2858 12.613C19.2871 12.7485 19.3229 12.8814 19.3897 12.9993C19.4565 13.1172 19.5522 13.2162 19.6678 13.287C19.9568 13.442 20.2898 13.495 20.6128 13.437C20.9788 13.417 21.3378 13.325 21.6678 13.167V14.141C21.6726 14.1792 21.6644 14.2179 21.6444 14.2507C21.6244 14.2836 21.5939 14.3087 21.5578 14.322C21.0111 14.5738 20.4059 14.6714 19.8078 14.604C19.3209 14.5544 18.8661 14.3378 18.5208 13.991C18.2382 13.6882 18.0469 13.3117 17.9688 12.905C17.7951 12.1651 17.8798 11.3881 18.2088 10.703C18.3671 10.3425 18.6325 10.0394 18.969 9.83478C19.3054 9.63017 19.6966 9.53395 20.0896 9.55917C20.4825 9.58438 20.8582 9.72981 21.1658 9.97574C21.4733 10.2217 21.6978 10.5562 21.8088 10.934C21.9268 11.257 21.9918 11.596 21.9998 11.94V12.623H19.2858V12.613ZM20.6928 11.608C20.7083 11.4604 20.6849 11.3112 20.6249 11.1754C20.5649 11.0396 20.4704 10.9219 20.3508 10.834C20.2463 10.7604 20.1216 10.7209 19.9938 10.7209C19.8659 10.7209 19.7413 10.7604 19.6368 10.834C19.5123 10.9214 19.4126 11.0396 19.3474 11.177C19.2822 11.3144 19.2537 11.4663 19.2648 11.618L20.6928 11.608ZM2.13376 12.985L2.38576 13.105C2.72576 13.271 3.09376 13.373 3.47176 13.408C3.6251 13.422 3.7791 13.422 3.93376 13.408C3.98918 13.3946 4.03963 13.3656 4.07925 13.3246C4.11887 13.2836 4.14602 13.2322 4.15754 13.1763C4.16907 13.1205 4.16449 13.0625 4.14435 13.0092C4.12421 12.9558 4.08932 12.9093 4.04376 12.875C3.9431 12.805 3.8361 12.7447 3.72276 12.694C3.40076 12.563 3.07876 12.452 2.71776 12.302C2.52335 12.1961 2.35734 12.0449 2.2338 11.8611C2.11027 11.6774 2.03286 11.4666 2.00813 11.2466C1.9834 11.0266 2.01208 10.8039 2.09175 10.5973C2.17141 10.3907 2.29971 10.2064 2.46576 10.06C2.82044 9.76937 3.26422 9.60944 3.72276 9.60701C4.21176 9.57701 4.70076 9.64801 5.16076 9.81801C5.18916 9.82511 5.21398 9.84234 5.23056 9.86647C5.24714 9.8906 5.25432 9.91995 5.25076 9.94901V11.125C5.02976 11.055 4.81876 10.955 4.59776 10.905C4.37576 10.854 4.06476 10.834 3.80276 10.804C3.73034 10.7877 3.65519 10.7877 3.58276 10.804C3.53619 10.8168 3.49429 10.8428 3.46211 10.8788C3.42992 10.9148 3.40882 10.9594 3.40132 11.0071C3.39383 11.0548 3.40026 11.1037 3.41985 11.1478C3.43944 11.192 3.47135 11.2295 3.51176 11.256C3.6191 11.328 3.7331 11.3883 3.85376 11.437C4.1951 11.5503 4.5301 11.681 4.85876 11.829C5.11764 11.9544 5.32628 12.1639 5.45054 12.4234C5.5748 12.6828 5.60732 12.9767 5.54276 13.257C5.50442 13.565 5.36689 13.8522 5.15096 14.0752C4.93502 14.2981 4.65239 14.4448 4.34576 14.493C3.61976 14.664 2.85676 14.593 2.17476 14.293C2.15848 14.286 2.14435 14.2749 2.13381 14.2606C2.12327 14.2464 2.11669 14.2296 2.11476 14.212V13.005C2.12045 12.9974 2.12618 12.9907 2.13376 12.985ZM5.85376 8.76301L7.20076 8.47101V9.66801H8.20676V10.844H7.19976V12.854C7.19388 12.9369 7.20783 13.02 7.24046 13.0964C7.27308 13.1728 7.32344 13.2403 7.38736 13.2934C7.45128 13.3465 7.52693 13.3836 7.60804 13.4016C7.68915 13.4196 7.77338 13.418 7.85376 13.397C7.98576 13.3837 8.11643 13.3603 8.24576 13.327V14.342C8.24576 14.412 8.24576 14.453 8.16576 14.473C7.69568 14.6489 7.17784 14.6489 6.70776 14.473C6.46689 14.3851 6.25682 14.229 6.1032 14.0238C5.94959 13.8185 5.85909 13.5729 5.84276 13.317C5.83758 13.2501 5.83758 13.1829 5.84276 13.116V8.76301H5.85376ZM8.69976 9.67801H9.79476C9.87476 9.67801 9.89476 9.67801 9.90476 9.76801C9.92276 9.87001 9.94643 9.97067 9.97576 10.07L10.0158 9.97001C10.1318 9.82184 10.2903 9.71259 10.47 9.65684C10.6498 9.60109 10.8422 9.6015 11.0218 9.65801V10.904C10.8676 10.8951 10.713 10.8951 10.5588 10.904C10.4427 10.9155 10.3299 10.9495 10.2268 11.004C10.144 11.0406 10.0746 11.1018 10.0279 11.1793C9.98116 11.2568 9.95947 11.3468 9.96576 11.437V14.503H8.69876L8.69976 9.67801ZM11.4738 9.67801H12.8508V14.513H11.4738V9.67801ZM11.4638 9.25501V8.25001C11.4638 8.19001 11.4638 8.16001 11.5338 8.15001L12.8208 7.87801V8.96401L11.4638 9.25501Z" fill="#F68E34"/>
</svg>
