<svg width="24" height="24" viewBox="0 0 24 24" fill="none" xmlns="http://www.w3.org/2000/svg">
<path d="M11.5 14.692H12.385V12.616H14.808C15.104 12.616 15.3573 12.5103 15.568 12.299C15.7787 12.0883 15.884 11.835 15.884 11.539V10.385C15.884 10.089 15.7787 9.83533 15.568 9.624C15.3573 9.41333 15.104 9.308 14.808 9.308H11.5V14.692ZM17.27 14.692H18.154V9.308H17.269L17.27 14.692ZM12.385 11.731V10.192H14.692C14.7693 10.192 14.84 10.2243 14.904 10.289C14.968 10.353 15 10.4233 15 10.5V11.423C15 11.5003 14.968 11.571 14.904 11.635C14.84 11.699 14.7693 11.731 14.692 11.731H12.385ZM6.808 14.692H9.038C9.33467 14.692 9.58833 14.5867 9.799 14.376C10.0103 14.1653 10.116 13.912 10.116 13.616V9.308H9.23V13.5C9.23 13.5773 9.198 13.648 9.134 13.712C9.07 13.776 8.99933 13.808 8.922 13.808H6.922C6.84533 13.808 6.775 13.776 6.711 13.712C6.647 13.648 6.615 13.5773 6.615 13.5V9.308H5.73V13.616C5.73 13.912 5.83533 14.1653 6.046 14.376C6.25733 14.5867 6.51067 14.692 6.806 14.692M4.616 19C4.156 19 3.77167 18.846 3.463 18.538C3.15433 18.23 3 17.8453 3 17.384V6.616C3 6.15533 3.15433 5.771 3.463 5.463C3.77167 5.155 4.15567 5.00067 4.615 5H19.385C19.845 5 20.229 5.15433 20.537 5.463C20.845 5.77167 20.9993 6.156 21 6.616V17.385C21 17.845 20.8457 18.2293 20.537 18.538C20.2283 18.8467 19.8443 19.0007 19.385 19H4.616ZM4.616 18H19.386C19.5393 18 19.6803 17.936 19.809 17.808C19.9377 17.68 20.0017 17.5387 20.001 17.384V6.616C20.001 6.462 19.937 6.32067 19.809 6.192C19.681 6.06333 19.5397 5.99933 19.385 6H4.615C4.46167 6 4.32067 6.064 4.192 6.192C4.06333 6.32 3.99933 6.46133 4 6.616V17.385C4 17.5383 4.064 17.6793 4.192 17.808C4.32 17.9367 4.461 18.0007 4.615 18" fill="#F68E34"/>
</svg>
